<svg width="29" height="28" viewBox="0 0 29 28" fill="none" xmlns="http://www.w3.org/2000/svg">
<g clip-path="url(#clip0_1_161)">
<path d="M27.8521 14.0109C27.8521 21.4673 21.7346 27.5218 14.176 27.5218C6.61743 27.5218 0.5 21.4673 0.5 14.0109C0.5 6.55455 6.61743 0.5 14.176 0.5C21.7346 0.5 27.8521 6.55455 27.8521 14.0109Z" fill="#0166B3" stroke="white"/>
<path d="M6.58738 14.3232L6.59493 14.3202L6.60238 14.317C10.7296 12.5283 13.4862 11.3731 14.8728 10.8075L14.874 10.8071C16.8409 9.99889 18.0178 9.52836 18.7679 9.25709C19.5102 8.9886 19.7884 8.93338 19.9705 8.92417C20.0005 8.9248 20.053 8.92855 20.108 8.94031C20.152 8.94972 20.1815 8.96081 20.1987 8.96902C20.1993 8.9701 20.1999 8.97132 20.2005 8.97269C20.2074 8.9875 20.2145 9.00997 20.222 9.04701C20.227 9.0718 20.2359 9.1342 20.2405 9.21597C20.245 9.29677 20.2442 9.37609 20.2373 9.43758L20.2373 9.43758L20.2367 9.4436C20.0182 11.624 19.1165 16.9962 18.6317 19.4576L18.631 19.461C18.4525 20.4017 18.1571 20.4876 18.0994 20.4971C17.8384 20.515 17.5814 20.4313 17.265 20.2499C17.1036 20.1574 16.9384 20.0464 16.754 19.9196C16.7274 19.9014 16.7004 19.8828 16.6731 19.8639C16.516 19.7557 16.3458 19.6383 16.1686 19.5264C15.6125 19.1631 15.1487 18.8516 14.6918 18.5446C14.1668 18.1919 13.6509 17.8452 13.0142 17.4334C12.6937 17.2219 12.5737 17.0763 12.5338 16.9998C12.5129 16.9598 12.5122 16.9468 12.5324 16.9014C12.568 16.8215 12.6536 16.7097 12.8242 16.5391C12.8981 16.4652 12.9784 16.3893 13.0677 16.3049C13.0767 16.2964 13.0858 16.2878 13.095 16.2791C13.1931 16.1862 13.3 16.0847 13.4063 15.9767L13.4131 15.9698L13.4196 15.9626C13.4193 15.9629 13.4197 15.9626 13.4209 15.9614C13.4251 15.9571 13.4398 15.9425 13.471 15.9127C13.5063 15.8791 13.5538 15.8345 13.6126 15.7798C13.7301 15.6706 13.8879 15.5255 14.0734 15.3552C14.1127 15.319 14.1533 15.2818 14.1949 15.2436C14.5449 14.9222 14.9713 14.5307 15.3944 14.137C15.8672 13.697 16.3399 13.2506 16.6998 12.8935C16.879 12.7156 17.0356 12.5547 17.1517 12.4253C17.2091 12.3612 17.263 12.2979 17.3062 12.24C17.3277 12.2113 17.3517 12.177 17.3734 12.1399C17.3903 12.111 17.4279 12.044 17.4469 11.9564L17.4583 11.904V11.8581C17.4583 11.8579 17.4583 11.8578 17.4583 11.8576C17.4587 11.8516 17.4595 11.8371 17.4601 11.8214C17.4612 11.7897 17.4618 11.7386 17.4548 11.6795C17.4414 11.5669 17.3909 11.3578 17.1898 11.2087C16.9028 10.9959 16.5773 11.0795 16.4947 11.1007C16.493 11.1011 16.4914 11.1015 16.4899 11.1019C16.4439 11.1126 16.4092 11.1269 16.3968 11.132L16.3968 11.132C16.3734 11.1416 16.3518 11.152 16.3343 11.1607C16.2991 11.1784 16.2596 11.2002 16.2189 11.2237C16.1363 11.2712 16.0266 11.3381 15.8922 11.4222C15.6225 11.591 15.2374 11.8395 14.7386 12.1659C13.7402 12.8191 12.2757 13.7914 10.3438 15.0789L10.3437 15.0789L10.3387 15.0824C9.81883 15.4381 9.40818 15.5624 9.07536 15.5624C8.88916 15.5624 8.57206 15.5062 8.17718 15.4059C7.79532 15.309 7.38235 15.1819 7.02371 15.0638L7.02371 15.0637L7.02017 15.0626C6.89797 15.0234 6.78502 14.9882 6.68062 14.9556C6.37518 14.8605 6.14282 14.7881 5.96558 14.7032C5.94383 14.6927 5.92468 14.6829 5.90788 14.6736C5.91628 14.6671 5.92545 14.6602 5.93546 14.653C6.06454 14.5593 6.2756 14.4465 6.58738 14.3232ZM20.1946 8.96196C20.1943 8.96166 20.1941 8.96146 20.1941 8.96144C20.1941 8.96141 20.1943 8.96157 20.1946 8.96196Z" fill="white" stroke="white"/>
</g>
<defs>
<clipPath id="clip0_1_161">
<rect width="28.33" height="28" fill="white"/>
</clipPath>
</defs>
</svg>
